<?xml version="1.0" encoding="utf-8"?>
<!-- Generator: Adobe Illustrator 27.6.1, SVG Export Plug-In . SVG Version: 6.00 Build 0)  -->
<svg version="1.1" id="Layer_1" xmlns="http://www.w3.org/2000/svg" xmlns:xlink="http://www.w3.org/1999/xlink" x="0px" y="0px"
	 viewBox="0 0 32 32" style="enable-background:new 0 0 32 32;" xml:space="preserve">
<style type="text/css">
	.st0{fill:#A02931;}
</style>
<path class="st0" d="M16,0C7.2,0,0.1,7.2,0.1,15.9s7.1,16,15.9,16S31.9,24.8,31.9,16S24.8,0,16,0z M16,28.9
	C8.9,28.9,3.1,23.1,3.1,16S8.9,3,16,3s13,5.8,13,12.9S23.2,28.9,16,28.9z"/>
<circle class="st0" cx="16.2" cy="8.3" r="2.1"/>
<path class="st0" d="M18.2,11.9h-5.9v2.5h1.6v8.4h-1.6v2h7.4v-2.1h-1.5C18.2,19.2,18.2,15.5,18.2,11.9L18.2,11.9z"/>
</svg>
