<?xml version="1.0" encoding="utf-8"?>
<!-- Generator: Adobe Illustrator 27.6.1, SVG Export Plug-In . SVG Version: 6.00 Build 0)  -->
<svg version="1.1" id="Layer_1" xmlns="http://www.w3.org/2000/svg" xmlns:xlink="http://www.w3.org/1999/xlink" x="0px" y="0px"
	 viewBox="0 0 32 32" style="enable-background:new 0 0 32 32;" xml:space="preserve">
<style type="text/css">
	.st0{fill:#A02931;}
</style>
<path class="st0" d="M19.2,7.7c0,0.6-0.5,1.2-1.2,1.2c-0.5,0-0.9-0.3-1-0.6c0,0,0,0,0,0c0-0.2-0.1-0.4-0.1-0.6
	c-0.8-3.1-3.6-5.4-6.9-5.4C6,2.3,2.8,5.5,2.8,9.4S6,16.5,10,16.5c0.5,0,1-0.1,1.5-0.2c0.1,0,0.2-0.1,0.4-0.1c0,0,0,0,0,0
	c0,0,0.1,0,0.1,0c0.6,0,1,0.4,1.1,0.9c0,0.1,0,0.2,0,0.3c0,0.4-0.2,0.7-0.5,0.9c0,0,0,0,0,0c-0.3,0.1-0.5,0.1-0.8,0.2
	c-0.6,0.1-1.2,0.2-1.8,0.2c-5.2,0-9.4-4.2-9.4-9.4S4.8,0,10,0c4.5,0,8.3,3.2,9.2,7.4C19.2,7.5,19.2,7.6,19.2,7.7z"/>
<path class="st0" d="M12.7,18.4C12.7,18.4,12.6,18.4,12.7,18.4C12.6,18.4,12.7,18.4,12.7,18.4C12.7,18.4,12.7,18.4,12.7,18.4
	L12.7,18.4z"/>
<path class="st0" d="M17,8.2L17,8.2C17,8.2,17,8.2,17,8.2C17,8.2,17,8.2,17,8.2z"/>
<path class="st0" d="M22.7,8.6c-4.8,0-8.7,3.9-8.7,8.7S20.3,32,22.7,32c1.9,0,8.7-9.8,8.7-14.6S27.5,8.6,22.7,8.6z M22.7,29.4
	c-0.6,0-6.4-8.5-6.4-12.1s2.9-6.4,6.4-6.4s6.4,2.9,6.4,6.4S23.3,29.4,22.7,29.4z"/>
<path class="st0" d="M22.7,12.6c-2.6,0-4.8,2.1-4.8,4.8s2.1,4.8,4.8,4.8s4.8-2.1,4.8-4.8S25.3,12.6,22.7,12.6z M22.7,19.9
	c-1.4,0-2.6-1.2-2.6-2.6s1.2-2.6,2.6-2.6s2.6,1.2,2.6,2.6S24.1,19.9,22.7,19.9z"/>
<circle class="st0" cx="10.3" cy="4.9" r="1.2"/>
<path class="st0" d="M11.5,7H8v1.5h0.9v5H8v1.2h4.4v-1.2h-0.9C11.5,11.3,11.5,9.2,11.5,7L11.5,7z"/>
<path class="st0" d="M1.2,23.3c0.5,1.2,1.2,2.2,2,3.1c1.7,1.8,3.6,3.2,5.8,4.3c1.1,0.6,2.3,1,3.6,1c0.8,0,1.5-0.1,2.2-0.5
	c0.1-0.1,0.3-0.2,0.4-0.3c0.4-0.4,0.7-0.9,1-1.3c0.2-0.3,0.2-0.7-0.1-0.9c-1-0.8-2.1-1.6-3.1-2.4c-0.3-0.2-0.7-0.2-0.9,0.1
	c-0.3,0.4-0.7,0.9-1,1.3c-0.3,0.3-0.5,0.4-0.9,0.3c-0.4-0.2-0.8-0.3-1.1-0.6c-0.9-0.7-1.8-1.4-2.6-2.1c-0.4-0.3-0.7-0.7-1.1-1.1
	c-0.1-0.1-0.2-0.2-0.2-0.3C5,23.5,5,23.3,5.3,23c0.3-0.4,0.7-0.8,1-1.3c0.3-0.3,0.2-0.7-0.1-1c-1-0.8-2-1.5-3-2.3
	c-0.2-0.2-0.4-0.2-0.7-0.1c-0.1,0-0.2,0.1-0.2,0.2c-0.4,0.5-0.7,0.9-1.1,1.4c-0.2,0.3-0.3,0.7-0.4,1.1C0.8,21.8,0.9,22.5,1.2,23.3
	L1.2,23.3z"/>
</svg>
