<?xml version="1.0" encoding="utf-8"?>
<!-- Generator: Adobe Illustrator 27.6.1, SVG Export Plug-In . SVG Version: 6.00 Build 0)  -->
<svg version="1.1" id="Layer_1" xmlns="http://www.w3.org/2000/svg" xmlns:xlink="http://www.w3.org/1999/xlink" x="0px" y="0px"
	 viewBox="0 0 512 512" style="enable-background:new 0 0 512 512;" xml:space="preserve">
<style type="text/css">
	.st0{fill:#A02931;}
</style>
<g>
	<path class="st0" d="M38.4,483.6V113.8c0-37,34-75.8,75.9-75.8h284.4c47.9,0,75.9,36,75.9,75.8v170.7c0,41.4-35.8,75.8-75.9,75.8
		H147.5c-7.5,0-14.4,6.1-19.7,11.4l-89.4,89.5c-11.1,11.1-40.7,31.3-29.6,42.4c11.1,11.1,29.1,11.1,40.2,0l105.5-105.4h244.2
		c62.8,0,113.8-50.9,113.8-113.8V113.8C512.5,50.9,461.6,0,398.7,0H114.3C51.4,0,0.5,50.9,0.5,113.8v369.8
		c0,15.7,12.7,28.4,28.4,28.4c9.8,0,9.5-9.9,9.5-9.9V483.6z"/>
	<path class="st0" d="M142.7,161.2h227.6c15.7,0,28.4-3.2,28.4-18.9s-12.7-18.9-28.4-18.9H142.7c-15.7,0-28.4,3.2-28.4,18.9
		C114.3,157.9,127,161.2,142.7,161.2"/>
	<path class="st0" d="M142.7,274.9h170.7c15.7,0,28.4-3.2,28.4-18.9s-12.7-18.9-28.4-18.9H142.7c-15.7,0-28.4,3.2-28.4,18.9
		C114.3,271.7,127,274.9,142.7,274.9"/>
</g>
</svg>
