<?xml version="1.0" encoding="utf-8"?>
<!-- Generator: Adobe Illustrator 27.6.1, SVG Export Plug-In . SVG Version: 6.00 Build 0)  -->
<svg version="1.1" id="Layer_1" xmlns="http://www.w3.org/2000/svg" xmlns:xlink="http://www.w3.org/1999/xlink" x="0px" y="0px"
	 viewBox="0 0 30.6 32" style="enable-background:new 0 0 30.6 32;" xml:space="preserve">
<style type="text/css">
	.st0{fill:#A02931;}
</style>
<path class="st0" d="M30.5,21.1c0-0.1-0.1-0.1-0.2-0.2c-0.1,0-0.3,0-0.4,0h-4.9c-0.8,0-1.6,0-2.4,0h-1.2c-0.3,0-0.7,0.1-1-0.1
	c-0.1-0.1-0.1-0.2-0.2-0.3c0-0.1-0.1-0.2-0.1-0.3c-0.1-0.2-0.1-0.4-0.2-0.6c-0.1-0.1-0.2-0.2-0.4-0.3c-0.5-0.2-1.1-0.5-1.7-0.7
	c-0.2-0.1-0.4-0.2-0.6-0.1c-0.2,0-0.3,0.2-0.4,0.3c0,0.1,0,0.2,0,0.4c0.1,0.2,0.4,0.3,0.5,0.4c0.1,0,0.1,0.1,0.2,0.1
	c0.1,0.1,0.3,0.1,0.5,0.2c0.2,0,0.4,0.1,0.5,0.2c0.6,0.3,0.7,0.8,0.9,1.3c0.2,0.6,0.4,1.2,0.6,1.9c0,0.1,0.1,0.3,0.2,0.5
	c0.2,0.6,0.4,1.2,0.6,1.7c0.1,0.3,0.2,0.6,0.3,0.9c0,0.1,0.1,0.3,0.1,0.4c0,0.1,0.1,0.2,0.1,0.4c0,0.3-0.2,0.5-0.3,0.7
	c-0.1,0.3-0.3,0.5-0.4,0.8c-0.1,0.2-0.3,0.4-0.2,0.6c0,0.1,0,0.2,0.1,0.3c0.1,0.1,0.1,0.1,0.2,0.2c0,0,0.1,0,0.1,0c0,0,0,0.2,0,0.2
	c0,0.1,0,0.2,0,0.3c-0.1,0.7,0.2,1.4,0.9,1.7c0.4,0.1,0.8,0.1,1.2-0.1c0.3-0.2,0.6-0.5,0.7-0.8c0.1-0.2,0.1-0.4,0.1-0.6
	c0-0.1,0-0.2,0-0.3c0-0.1-0.1-0.2-0.1-0.3h0h2.3c0,0,0,0,0,0c-0.3,0.8-0.1,1.8,0.8,2.1c0.5,0.2,1,0.2,1.4-0.1
	c0.3-0.2,0.5-0.5,0.6-0.9c0.1-0.2,0.1-0.4,0.1-0.6c0-0.2,0-0.4-0.1-0.6c0,0,0,0,0,0c0,0,0.3,0,0.3,0c0.1,0,0.2,0,0.3-0.1
	c0.1-0.1,0.2-0.3,0.2-0.5c0-0.1,0-0.2-0.1-0.3c-0.1-0.1-0.2-0.1-0.3-0.1c0,0,0,0,0,0c-0.4,0-0.8,0-1.2,0h-5.9c-0.1,0-0.2,0-0.3,0
	c-0.1,0-0.1,0,0,0c0.2-0.3,0.2-0.8,0.6-0.9c0,0,0,0,0,0c0,0,0,0,0,0c0.1,0,0.3,0,0.4,0c0.2,0,0.5,0,0.7,0c0.2,0,0.4,0,0.6,0
	c0.8,0,1.7,0,2.5,0h0.8c0.2,0,0.5,0,0.7,0c0.1,0,0.1,0,0.2,0c0.1,0,0.2-0.1,0.2-0.2c0.1-0.2,0.1-0.4,0.2-0.5
	c0.1-0.3,0.2-0.6,0.3-0.9c0.2-0.6,0.4-1.2,0.6-1.9c0.2-0.5,0.3-1.1,0.5-1.6C30.4,22.2,30.8,21.5,30.5,21.1L30.5,21.1z M26.9,30
	c0.2-0.3,0.5-0.4,0.9-0.2c0.7,0.3,0.4,1.5-0.3,1.4c0,0,0,0-0.1,0c-0.2,0-0.4-0.2-0.5-0.4C26.7,30.5,26.8,30.2,26.9,30z M21.5,23.9
	C21.5,23.9,21.5,23.9,21.5,23.9C21.4,23.9,21.4,23.9,21.5,23.9c-0.4-0.6-0.5-1.4-0.8-2c0.5,0,1,0,1.5,0c0.2,0,0.4,0,0.6,0
	c0.1,0,0.2,0,0.2,0c0,0,0.1,0,0,0c0,0,0,0,0.1,0c0,0,0,0,0,0c0,0,0,0,0,0c0.1,0.6,0.1,1.3,0.2,2c0,0,0,0,0,0c-0.1,0-0.1,0-0.2,0
	h-0.9C22,24,21.7,24,21.5,23.9C21.5,23.9,21.5,23.9,21.5,23.9L21.5,23.9z M22,29.9c0.2-0.1,0.4-0.2,0.6-0.1c0.1,0,0.2,0.1,0.3,0.2
	c0.2,0.2,0.3,0.6,0.2,0.9c-0.1,0.2-0.4,0.4-0.7,0.4c-0.3,0-0.5-0.2-0.7-0.4C21.6,30.4,21.7,30.1,22,29.9z M23.5,26.8h-0.6
	c-0.1,0-0.3,0-0.4,0l0,0l0,0c0,0-0.1,0-0.1-0.1c-0.2-0.6-0.5-1.3-0.7-1.9c0.4,0,0.9,0,1.4,0c0.1,0,0.1,0,0.2,0c0,0,0.1,0,0.1,0
	c0,0,0,0,0,0c0,0,0,0,0,0c0,0,0.1,0.1,0.1,0.2c0.1,0.6,0.1,1.2,0.2,1.8C23.6,26.8,23.6,26.8,23.5,26.8L23.5,26.8z M25.9,26.8
	c-0.4,0-0.8,0-1.2,0c0,0,0,0-0.1,0h0c0,0,0,0,0,0l0,0l0,0c0,0-0.1-0.1-0.1-0.1c0-0.6-0.1-1.3-0.2-1.9H26c0,0,0,0,0,0
	C26,25.5,25.9,26.1,25.9,26.8z M26.4,21.9c-0.1,0.7-0.1,1.4-0.2,2c-0.7,0-1.4,0-2,0c-0.1-0.7-0.1-1.4-0.2-2
	C24.8,21.9,25.6,21.9,26.4,21.9L26.4,21.9L26.4,21.9z M27.9,26.8C27.9,26.8,27.9,26.8,27.9,26.8C27.9,26.8,27.9,26.8,27.9,26.8
	L27.9,26.8C27.9,26.8,27.8,26.8,27.9,26.8c-0.1,0.1-0.1,0.1-0.2,0.1c0,0-0.1,0-0.1,0c-0.3,0-0.7,0-1,0l0,0c0.1-0.6,0.1-1.2,0.2-1.9
	c0,0,0,0,0,0c0-0.1,0-0.1,0-0.2c0.6,0,1.2,0,1.7,0C28.3,25.4,28.3,26.2,27.9,26.8L27.9,26.8z M28.9,23.8c0,0.1-0.1,0.1-0.2,0.2
	c-0.1,0-0.1,0-0.2,0c-0.2,0-0.5,0-0.7,0h-0.3c-0.2,0-0.4,0-0.6,0c0.1-0.7,0.1-1.4,0.2-2.1c0.8,0,1.5,0,2.3,0
	C29.3,22.6,29.1,23.2,28.9,23.8z"/>
<path class="st0" d="M7.3,0.1c-4,0-7.2,3.2-7.2,7.2s3.2,7.2,7.2,7.2s7.2-3.2,7.2-7.2S11.3,0.1,7.3,0.1z M7.3,13
	c-3.2,0-5.7-2.6-5.7-5.7s2.6-5.7,5.7-5.7S13,4.2,13,7.3S10.5,13,7.3,13z"/>
<path class="st0" d="M12.4,7.5c0,0.4-0.4,0.8-0.8,0.8h-5V3.7c0-0.5,0.4-0.8,0.8-0.8s0.8,0.4,0.8,0.8v3h3.4C12.1,6.6,12.4,7,12.4,7.5
	z"/>
<path class="st0" d="M20.8,14.1c-2.8,0-5.6,0-8.4,0c-1.1,0-1.1,1.8,0,1.8c2.8,0,5.6,0,8.4,0C22,15.8,22,14.1,20.8,14.1z"/>
<path class="st0" d="M18.8,23.7c-2.8,0-3.6,0-6.4,0c-1.1,0-1.1,1.8,0,1.8c2.8,0,3.6,0,6.4,0C20,25.4,20,23.7,18.8,23.7z"/>
<path class="st0" d="M15.4,18.7c-2.1,0-0.1,0-3,0c-1.1,0-1.1,1.7,0,1.8c2.8,0,0.2,0,3,0C16.5,20.5,16.5,18.7,15.4,18.7z"/>
<path class="st0" d="M15.6,5.3h8.7c0,0,2.1,0.2,2.1,2.1v12.1h-2V8.1c0,0,0-0.7-0.6-0.7h-7.8C15.9,7.4,16,6.2,15.6,5.3z"/>
<path class="st0" d="M8.5,15.5v13.6c0,0-0.1,0.6,0.6,0.6h10c0,0,0.5,0.4,0.5,1c0,0.4-0.1,0.7-0.5,1H8.5c0,0-2.1-0.2-2.1-2.1V15.5
	C6.4,15.5,7.3,15.8,8.5,15.5L8.5,15.5z"/>
</svg>
