<?xml version="1.0" encoding="utf-8"?>
<!-- Generator: Adobe Illustrator 27.6.1, SVG Export Plug-In . SVG Version: 6.00 Build 0)  -->
<svg version="1.1"
	 id="Layer_1" shape-rendering="geometricPrecision" text-rendering="geometricPrecision" image-rendering="optimizeQuality"
	 xmlns="http://www.w3.org/2000/svg" xmlns:xlink="http://www.w3.org/1999/xlink" x="0px" y="0px" viewBox="0 0 510 512.5"
	 style="enable-background:new 0 0 510 512.5;" xml:space="preserve">
<style type="text/css">
	.st0{fill-rule:evenodd;clip-rule:evenodd;fill:#E3DFC6;}
</style>
<path class="st0" d="M435.7,74.5C387.8,26.5,324,0,256.1,0C116.1,0,2.2,113.9,2.1,253.9c0,44.8,11.7,88.4,33.9,126.9L0,512.5
	l134.6-35.3c37.1,20.2,78.9,30.9,121.3,30.9h0.1C396,508.1,510,394.1,510,254.1C510,186.3,483.6,122.5,435.7,74.5L435.7,74.5
	L435.7,74.5z M256.1,465.2L256.1,465.2c-38,0-75.1-10.2-107.5-29.4l-7.7-4.6l-79.9,21l21.3-77.9l-5-8C56.1,332.6,45,293.8,45,253.9
	c0-116.4,94.7-211,211.2-211c56.4,0,109.4,22,149.2,61.9c39.9,39.9,61.8,92.9,61.8,149.3C467.1,370.5,372.4,465.2,256.1,465.2
	L256.1,465.2L256.1,465.2z M371.8,307.1c-6.3-3.2-37.5-18.5-43.4-20.6c-5.8-2.1-10-3.2-14.3,3.2c-4.2,6.4-16.4,20.7-20.1,24.9
	c-3.7,4.2-7.4,4.8-13.7,1.6c-6.3-3.2-26.8-9.9-51-31.5c-18.9-16.8-31.6-37.6-35.3-44c-3.7-6.4-0.4-9.8,2.8-12.9
	c2.8-2.8,6.3-7.4,9.5-11.1s4.2-6.4,6.3-10.6c2.1-4.2,1.1-7.9-0.5-11.1c-1.6-3.2-14.3-34.4-19.6-47.1c-5.2-12.4-10.4-10.7-14.3-10.9
	c-3.7-0.2-7.9-0.2-12.2-0.2s-11.1,1.6-16.9,7.9c-5.8,6.4-22.2,21.7-22.2,52.9c0,31.2,22.7,61.4,25.9,65.6
	c3.2,4.2,44.7,68.3,108.4,95.8c15.1,6.5,27,10.4,36.2,13.4c15.2,4.8,29,4.2,40,2.5c12.2-1.8,37.5-15.4,42.8-30.2
	c5.3-14.8,5.3-27.5,3.7-30.2C382.4,311.9,378.2,310.3,371.8,307.1L371.8,307.1L371.8,307.1z"/>
</svg>
