<?xml version="1.0" encoding="utf-8"?>
<!-- Generator: Adobe Illustrator 27.6.1, SVG Export Plug-In . SVG Version: 6.00 Build 0)  -->
<svg version="1.1" id="Layer_1" xmlns="http://www.w3.org/2000/svg" xmlns:xlink="http://www.w3.org/1999/xlink" x="0px" y="0px"
	 viewBox="0 0 32.7 32" style="enable-background:new 0 0 32.7 32;" xml:space="preserve">
<style type="text/css">
	.st0{fill:#A02931;}
</style>
<path class="st0" d="M2,2.8C1.8,2.7,1.6,2.6,1.4,2.5C1,2.3,0.4,2.1,0.2,1.7C0,1.4,0,1.1,0.1,0.8C0.2,0.4,0.6,0.1,1,0.1
	c0.5-0.1,1,0.2,1.4,0.3c1.3,0.5,2.7,1,4,1.6C6.7,2.2,7,2.4,7.2,2.7c0.3,0.4,0.5,0.9,0.6,1.4C7.9,4.4,8,4.6,8,4.9
	c0.1,0.3,0.2,0.6,0.4,0.7c0.6,0.4,1.6,0.2,2.3,0.2h2.8c1.9,0,3.8,0,5.7,0c2,0,3.9,0,5.9,0s3.9,0,5.9,0c0.3,0,0.6,0,0.9,0.1
	c0.2,0.1,0.4,0.2,0.6,0.4c0.6,0.8-0.4,2.6-0.6,3.4c-0.4,1.3-0.8,2.6-1.2,3.9c-0.5,1.5-0.9,3-1.4,4.5c-0.2,0.7-0.5,1.5-0.7,2.2
	c-0.1,0.4-0.2,0.9-0.5,1.3c-0.1,0.2-0.3,0.4-0.5,0.5c-0.1,0.1-0.3,0.1-0.5,0.1c-0.6,0-1.2,0-1.8,0s-1.2,0-1.8,0c-2,0-4,0-5.9,0
	c-0.5,0-1,0-1.6,0c-0.6,0-1.1,0-1.7,0c-0.3,0-0.7,0-1,0c0,0-0.1,0-0.1,0s-0.1,0-0.1,0c-0.9,0.2-1,1.4-1.5,2.1c0,0,0,0,0,0.1
	c0.2,0.1,0.5,0,0.7,0c0.2,0,0.5,0,0.7,0c0.5,0,1,0,1.5,0c1,0,1.9,0,2.9,0c2,0,3.9,0,5.8,0c1,0,2,0,2.9,0s1.9,0,2.9,0
	c0,0,0.1,0,0.1,0c0.2,0,0.5,0.1,0.7,0.3c0.2,0.2,0.3,0.5,0.3,0.7c0,0.4-0.1,0.9-0.5,1.1c-0.2,0.1-0.5,0.2-0.8,0.2
	c-0.1,0-0.7,0-0.7,0c0,0,0,0,0,0c0.2,0.4,0.3,0.9,0.3,1.4c0,0.5,0,1-0.1,1.5c-0.2,0.8-0.8,1.5-1.5,2c-1,0.6-2.3,0.7-3.3,0.3
	c-2-0.9-2.4-3.1-1.8-5.1c0,0,0,0-0.1,0c-1.8,0-3.7,0-5.5,0c0,0,0,0,0,0c0,0.2,0.1,0.5,0.2,0.7c0,0.3,0.1,0.5,0.1,0.8
	c0,0.5,0,1-0.2,1.5c-0.3,0.9-0.9,1.6-1.8,2C13.9,32,12.9,32,12,31.7c-1.6-0.6-2.4-2.3-2.2-4c0-0.2,0.1-0.4,0.1-0.7
	c0-0.1,0.1-0.4,0.1-0.5c-0.1-0.1-0.2-0.1-0.3-0.1c-0.2-0.1-0.4-0.2-0.6-0.4c-0.2-0.2-0.2-0.4-0.3-0.7c0-0.5,0.4-1,0.6-1.5
	c0.3-0.6,0.6-1.2,0.9-1.8c0.3-0.5,0.7-1.1,0.6-1.7c0-0.3-0.2-0.6-0.3-0.9s-0.2-0.6-0.3-0.9c-0.2-0.7-0.5-1.4-0.7-2.1
	c-0.5-1.4-0.9-2.8-1.4-4.1c-0.1-0.4-0.3-0.8-0.4-1.1c-0.5-1.5-1-2.9-1.5-4.4C5.9,5.4,5.6,4.2,4.2,3.5C3.8,3.3,3.4,3.2,3,3.1
	C2.6,3,2.3,2.8,2,2.8L2,2.8z M18.2,19.7L18.2,19.7C18.2,19.7,18.2,19.7,18.2,19.7c0.1,0,0.1,0,0.1,0.1c0,0,0,0,0,0c0,0,0.1,0,0.1,0
	c1,0,2,0,2.9,0c0.2-1.6,0.4-3.2,0.5-4.9c0,0,0,0,0,0c-1.4,0-2.8,0-4.2,0h0c0.1,1.4,0.2,3,0.4,4.4C18,19.5,18.1,19.6,18.2,19.7
	C18.2,19.7,18.3,19.7,18.2,19.7L18.2,19.7z M15.5,14.9L15.5,14.9C15.5,14.9,15.5,14.9,15.5,14.9c-0.1,0-0.1,0-0.1-0.1
	c-0.1,0-0.1,0-0.2,0c-0.1,0-0.3,0-0.4,0c-1.1,0-2.2-0.1-3.2,0c0.5,1.5,1.1,3.1,1.6,4.6c0,0.1,0.1,0.2,0.2,0.2c0,0,0,0,0,0
	c0,0,0,0,0,0c0.3,0,0.7,0,1,0H16c0.1,0,0.2,0,0.3,0c-0.1-1.5-0.3-2.9-0.4-4.4C15.8,15.2,15.7,15.1,15.5,14.9
	C15.6,15,15.6,15,15.5,14.9L15.5,14.9z M15,8.2C15,8.2,15,8.2,15,8.2c-0.1-0.1-0.1-0.1-0.2-0.1c0,0,0,0,0,0c-0.2-0.1-0.4,0-0.6,0
	c-0.5,0-0.9,0-1.4,0c-1.2,0-2.5-0.1-3.6,0c0.6,1.6,1,3.3,1.8,4.8c0,0,0,0,0.1,0c0,0,0,0,0.1,0c0,0,0,0,0.1,0
	c0.6,0.2,1.2,0.1,1.8,0.1c0.4,0,0.9,0,1.4,0c0.2,0,0.5,0,0.7,0c0.2,0,0.4,0,0.5,0c0,0,0,0,0.1,0C15.4,11.4,15.4,9.8,15,8.2
	C15.1,8.2,15,8.2,15,8.2L15,8.2z M27.8,13c0.2,0,0.3,0,0.5,0c0.2-0.1,0.3-0.2,0.4-0.4c0.5-1.5,1-3,1.4-4.5c-1.8-0.1-3.7,0-5.5,0
	c-0.2,1.6-0.4,3.3-0.5,4.9c0.5,0.1,1,0,1.5,0c0.2,0,0.4,0,0.6,0C26.7,13,27.3,13,27.8,13L27.8,13z M23.3,19.8c0.7,0.1,1.5,0,2.3,0
	c0.1,0,0.2,0,0.3,0c0.1,0,0.2,0,0.2,0c0,0,0,0,0,0c0,0,0,0,0,0c0,0,0.1,0,0.1-0.1c0,0,0,0,0,0c0.8-1.4,1-3.2,1.6-4.7
	c-1.3-0.1-2.7-0.1-4.1,0c0,0.1,0,0.3,0,0.4c0,0,0,0,0,0.1C23.6,16.9,23.5,18.3,23.3,19.8C23.3,19.8,23.3,19.8,23.3,19.8L23.3,19.8z
	 M22.2,12.9C22.2,12.9,22.2,12.9,22.2,12.9c0.2-1.6,0.4-3.2,0.5-4.8c0,0,0,0,0,0c-1.9,0-3.9-0.1-5.7,0c0.1,1.6,0.3,3.2,0.5,4.8
	C19,13,20.6,13,22.2,12.9L22.2,12.9z M13.6,26.6c-0.5-0.1-1,0-1.4,0.3c-0.6,0.5-0.8,1.3-0.5,2c0.3,0.6,0.9,1,1.6,1s1.3-0.4,1.6-1
	c0.3-0.7,0.1-1.5-0.5-2C14.2,26.8,13.9,26.7,13.6,26.6z M25.2,30.1c1.8,0.1,2.5-2.7,0.8-3.4c-0.7-0.3-1.6-0.1-2,0.6
	c-0.4,0.6-0.5,1.3-0.2,1.9c0.2,0.5,0.7,0.8,1.2,0.9C25.1,30,25.2,30.1,25.2,30.1L25.2,30.1z"/>
</svg>
