<?xml version="1.0" encoding="utf-8"?>
<!-- Generator: Adobe Illustrator 27.6.1, SVG Export Plug-In . SVG Version: 6.00 Build 0)  -->
<svg version="1.1" id="Layer_1" xmlns="http://www.w3.org/2000/svg" xmlns:xlink="http://www.w3.org/1999/xlink" x="0px" y="0px"
	 viewBox="0 0 31 31" style="enable-background:new 0 0 31 31;" xml:space="preserve">
<style type="text/css">
	.st0{fill:#030303;}
	.st1{fill:#020202;}
	.st2{fill:#010101;}
	.st3{fill:#040404;}
	.st4{fill:#060606;}
</style>
<g>
	<path d="M10.5,28.4c6.1,2.3,13.4-0.2,16.9-5.8c1.9-3.2,2.4-6.8,1.7-10.4c0,0,0,0,0,0c0,0,0,0,0,0c0.5,0,1,0,1.5,0
		c0.5,0,0.2,4.6,0.2,5c-0.3,2.3-1,4.5-2.2,6.4c-4.5,7.3-14.9,9.5-21.9,4.5c-5.3-3.7-8-10.6-6.1-16.8c1-3.5,3.2-6.7,6.3-8.7
		c4.1-2.7,9.1-3.1,13.7-1.8c0.5,0.1,0.2,1.3,0.2,1.7c0-0.3-2.6-0.8-2.9-0.8c-1.1-0.2-2.2-0.2-3.3-0.2C6,2,0.1,10.4,2,18.6
		c0.5,2.2,1.5,4.2,3,5.9C6.5,26.3,8.4,27.6,10.5,28.4z"/>
	<path class="st0" d="M31,14.8c0-0.1,0-0.1,0-0.2C31,14.7,31,14.8,31,14.8z"/>
	<path class="st1" d="M31,16.1c0-0.1,0-0.1,0-0.2C31,16,31,16,31,16.1z"/>
	<path class="st2" d="M14.8,30.8C14.8,30.8,14.9,30.8,14.8,30.8C14.9,30.8,14.8,30.8,14.8,30.8z"/>
	<path class="st2" d="M16,30.8C16.1,30.8,16.1,30.8,16,30.8C16.1,30.8,16.1,30.8,16,30.8z"/>
	<path d="M17,21.5c-0.2,0.4-0.5,0.8-0.7,1.3c-0.4,0.7-0.7,1.3-1,2c-0.1,0.1-0.1,0.3-0.2,0.4c0,0.1-0.1,0.2-0.2,0.1
		c-0.1-0.1-0.2-0.2-0.3-0.3c-0.1-0.1-0.1-0.1-0.2-0.2c-0.2-0.3-0.5-0.5-0.7-0.8c-0.1-0.1-0.1-0.1-0.2-0.2c-3.1-3-6-6.1-8.9-9.2
		c-0.1-0.1-0.2-0.2-0.4-0.4c0,0,0,0-0.1-0.1c-0.2-0.1-0.1-0.1,0-0.3c0.8-0.6,1.5-1.2,2.3-1.8c0.1-0.1,0.2-0.2,0.3-0.2
		c0.1-0.1,0.1-0.1,0.2,0c0.5,0.4,6.2,5,6.3,5c0.2-0.3,0.4-0.5,0.7-0.8C18.3,11.1,23.4,6.7,29,3c0.2-0.1,0.4-0.3,0.6-0.4
		c0.1,0.3,0.3,0.7,0.4,1c0.1,0.2,0.1,0.3,0.2,0.5c0.1,0.1,0,0.2-0.1,0.3C25,9.5,20.5,15.2,17,21.5z"/>
	<path class="st3" d="M3.8,23C3.8,23,3.8,23,3.8,23C3.8,23,3.8,23,3.8,23z"/>
	<path class="st3" d="M4.6,24.2C4.6,24.1,4.6,24.1,4.6,24.2C4.6,24.1,4.6,24.1,4.6,24.2z"/>
	<path class="st2" d="M5.3,24.9C5.3,24.9,5.3,24.9,5.3,24.9C5.3,24.9,5.3,24.9,5.3,24.9z"/>
	<path class="st3" d="M11.3,15.4C11.3,15.3,11.3,15.3,11.3,15.4C11.3,15.3,11.3,15.3,11.3,15.4z"/>
	<path class="st3" d="M7.7,26.9C7.7,26.9,7.7,26.9,7.7,26.9C7.7,26.9,7.7,26.9,7.7,26.9z"/>
	<path class="st4" d="M5.1,13.3C5.1,13.3,5.1,13.3,5.1,13.3C5.1,13.3,5.1,13.3,5.1,13.3z"/>
	<path class="st1" d="M29.1,12.2C29.1,12.2,29.1,12.2,29.1,12.2C29.1,12.2,29.1,12.2,29.1,12.2z"/>
</g>
</svg>
