<?xml version="1.0" encoding="utf-8"?>
<!-- Generator: Adobe Illustrator 27.6.1, SVG Export Plug-In . SVG Version: 6.00 Build 0)  -->
<svg version="1.1" id="Layer_1" xmlns="http://www.w3.org/2000/svg" xmlns:xlink="http://www.w3.org/1999/xlink" x="0px" y="0px"
	 viewBox="0 0 23.9 32" style="enable-background:new 0 0 23.9 32;" xml:space="preserve">
<style type="text/css">
	.st0{fill:#A02931;}
</style>
<path class="st0" d="M11.9,0C5.4,0,0,5.3,0,11.9s8.7,20,11.9,20c2.6,0,11.9-13.5,11.9-20S18.5,0,11.9,0z M11.9,29.4
	c-1,0-9.4-12-9.4-17.2s4.2-9.7,9.4-9.7s9.4,4.5,9.4,9.7S12.8,29.4,11.9,29.4z"/>
<path class="st0" d="M11.9,5.4c-3.6,0-6.5,2.9-6.5,6.5s2.9,6.5,6.5,6.5s6.5-2.9,6.5-6.5S15.5,5.4,11.9,5.4z M11.9,15.8
	c-2.1,0-3.9-1.7-3.9-3.9S9.7,8,11.9,8s3.9,1.7,3.9,3.9S14.1,15.8,11.9,15.8z"/>
</svg>
