<?xml version="1.0" encoding="utf-8"?>
<!-- Generator: Adobe Illustrator 27.6.1, SVG Export Plug-In . SVG Version: 6.00 Build 0)  -->
<svg version="1.1" id="Layer_1" xmlns="http://www.w3.org/2000/svg" xmlns:xlink="http://www.w3.org/1999/xlink" x="0px" y="0px"
	 viewBox="0 0 23.3 32" style="enable-background:new 0 0 23.3 32;" xml:space="preserve">
<style type="text/css">
	.st0{fill:#A02931;}
</style>
<path class="st0" d="M0,8c0,2.4,0.6,4.8,1.5,7c1.7,4.4,4.1,8.4,7.3,11.9c1.6,1.8,3.5,3.4,5.8,4.4c1.4,0.6,2.8,0.9,4.3,0.6
	c0.3,0,0.7-0.2,1-0.3c0.9-0.5,1.8-1.1,2.8-1.6c0.7-0.4,0.9-1.1,0.5-1.7c-1.3-2.2-2.6-4.4-3.9-6.6c-0.4-0.7-1.1-0.8-1.8-0.4
	c-0.9,0.5-1.8,1.1-2.7,1.6c-0.7,0.4-1.2,0.4-1.8-0.1c-0.6-0.6-1.2-1.2-1.6-1.9c-1.1-1.8-2.2-3.7-3.3-5.6c-0.5-0.9-0.8-1.8-1.2-2.7
	c-0.1-0.2-0.1-0.5-0.2-0.7c-0.1-0.8,0.1-1.1,0.7-1.5c0.9-0.5,1.8-1,2.7-1.6c0.7-0.4,0.9-1.1,0.5-1.8C9.5,4.9,8.2,2.8,7,0.7
	C6.8,0.3,6.4,0,5.9,0C5.7,0,5.4,0.1,5.3,0.2c-1,0.6-2,1.1-2.9,1.7C1.7,2.3,1.3,3,0.9,3.6C0.3,5,0,6.5,0,8z"/>
</svg>
