<?xml version="1.0" encoding="utf-8"?>
<!-- Generator: Adobe Illustrator 27.6.1, SVG Export Plug-In . SVG Version: 6.00 Build 0)  -->
<svg version="1.1" id="Layer_1" xmlns="http://www.w3.org/2000/svg" xmlns:xlink="http://www.w3.org/1999/xlink" x="0px" y="0px"
	 viewBox="0 0 31.2 32" style="enable-background:new 0 0 31.2 32;" xml:space="preserve">
<style type="text/css">
	.st0{display:none;fill:#FF0000;}
	.st1{fill:#A02931;}
</style>
<rect x="-1.3" y="-1.7" class="st0" width="32.2" height="35.5"/>
<path class="st1" d="M20.9,16c-0.2-0.1-0.3-0.1-0.5-0.2c2.3-1.5,3.8-4.2,3.8-7.1c0-4.8-3.8-8.6-8.6-8.6C10.9,0.1,7,3.9,7,8.7
	c0,3,1.5,5.6,3.8,7.1c-0.2,0.1-0.4,0.1-0.5,0.2C4.3,18.2,0,24,0,30.7C0,31.4,0.6,32,1.3,32s1.3-0.6,1.3-1.3
	c0-7.3,5.9-13.1,13.1-13.1s13.1,5.9,13.1,13.1c0,0.7,0.6,1.3,1.3,1.3c0.7,0,1.2-0.6,1.2-1.3C31.2,23.9,26.9,18.2,20.9,16z M9.4,8.7
	c0-3.4,2.8-6.2,6.2-6.2s6.2,2.8,6.2,6.2s-2.8,6.2-6.2,6.2S9.4,12.1,9.4,8.7z"/>
</svg>
